<?xml version="1.0" encoding="utf-8" standalone="no"?>
<!DOCTYPE svg PUBLIC "-//W3C//DTD SVG 1.1//EN"
  "http://www.w3.org/Graphics/SVG/1.1/DTD/svg11.dtd">
<svg xmlns:xlink="http://www.w3.org/1999/xlink" width="460.8pt" height="345.6pt" viewBox="0 0 460.8 345.6" xmlns="http://www.w3.org/2000/svg" version="1.1">
 <metadata>
  <rdf:RDF xmlns:dc="http://purl.org/dc/elements/1.1/" xmlns:cc="http://creativecommons.org/ns#" xmlns:rdf="http://www.w3.org/1999/02/22-rdf-syntax-ns#">
   <cc:Work>
    <dc:type rdf:resource="http://purl.org/dc/dcmitype/StillImage"/>
    <dc:date>2024-08-26T18:14:27.419847</dc:date>
    <dc:format>image/svg+xml</dc:format>
    <dc:creator>
     <cc:Agent>
      <dc:title>Matplotlib v3.8.4, https://matplotlib.org/</dc:title>
     </cc:Agent>
    </dc:creator>
   </cc:Work>
  </rdf:RDF>
 </metadata>
 <defs>
  <style type="text/css">*{stroke-linejoin: round; stroke-linecap: butt}</style>
 </defs>
 <g id="figure_1">
  <g id="patch_1">
   <path d="M 0 345.6 
L 460.8 345.6 
L 460.8 0 
L 0 0 
z
" style="fill: #ffffff"/>
  </g>
  <g id="axes_1">
   <g id="patch_2">
    <path d="M 70.6025 300.76 
L 395.908 300.76 
L 395.908 41.24 
L 70.6025 41.24 
z
" style="fill: #ffffff"/>
   </g>
   <g id="matplotlib.axis_1">
    <g id="xtick_1">
     <g id="line2d_1">
      <path d="M 83.480791 300.76 
L 83.480791 41.24 
" clip-path="url(#p39bf2319c4)" style="fill: none; stroke: #b0b0b0; stroke-width: 0.8; stroke-linecap: square"/>
     </g>
     <g id="line2d_2">
      <defs>
       <path id="mbd98e56a11" d="M 0 0 
L 0 3.5 
" style="stroke: #9467bd; stroke-width: 0.8"/>
      </defs>
      <g>
       <use xlink:href="#mbd98e56a11" x="83.480791" y="300.76" style="fill: #9467bd; stroke: #9467bd; stroke-width: 0.8"/>
      </g>
     </g>
     <g id="text_1">
      <!-- −40 -->
      <g style="fill: #9467bd" transform="translate(72.928448 315.358437) scale(0.1 -0.1)">
       <defs>
        <path id="DejaVuSans-2212" d="M 678 2272 
L 4684 2272 
L 4684 1741 
L 678 1741 
L 678 2272 
z
" transform="scale(0.015625)"/>
        <path id="DejaVuSans-34" d="M 2419 4116 
L 825 1625 
L 2419 1625 
L 2419 4116 
z
M 2253 4666 
L 3047 4666 
L 3047 1625 
L 3713 1625 
L 3713 1100 
L 3047 1100 
L 3047 0 
L 2419 0 
L 2419 1100 
L 313 1100 
L 313 1709 
L 2253 4666 
z
" transform="scale(0.015625)"/>
        <path id="DejaVuSans-30" d="M 2034 4250 
Q 1547 4250 1301 3770 
Q 1056 3291 1056 2328 
Q 1056 1369 1301 889 
Q 1547 409 2034 409 
Q 2525 409 2770 889 
Q 3016 1369 3016 2328 
Q 3016 3291 2770 3770 
Q 2525 4250 2034 4250 
z
M 2034 4750 
Q 2819 4750 3233 4129 
Q 3647 3509 3647 2328 
Q 3647 1150 3233 529 
Q 2819 -91 2034 -91 
Q 1250 -91 836 529 
Q 422 1150 422 2328 
Q 422 3509 836 4129 
Q 1250 4750 2034 4750 
z
" transform="scale(0.015625)"/>
       </defs>
       <use xlink:href="#DejaVuSans-2212"/>
       <use xlink:href="#DejaVuSans-34" x="83.789062"/>
       <use xlink:href="#DejaVuSans-30" x="147.412109"/>
      </g>
     </g>
    </g>
    <g id="xtick_2">
     <g id="line2d_3">
      <path d="M 120.924406 300.76 
L 120.924406 41.24 
" clip-path="url(#p39bf2319c4)" style="fill: none; stroke: #b0b0b0; stroke-width: 0.8; stroke-linecap: square"/>
     </g>
     <g id="line2d_4">
      <g>
       <use xlink:href="#mbd98e56a11" x="120.924406" y="300.76" style="fill: #9467bd; stroke: #9467bd; stroke-width: 0.8"/>
      </g>
     </g>
     <g id="text_2">
      <!-- −30 -->
      <g style="fill: #9467bd" transform="translate(110.372062 315.358437) scale(0.1 -0.1)">
       <defs>
        <path id="DejaVuSans-33" d="M 2597 2516 
Q 3050 2419 3304 2112 
Q 3559 1806 3559 1356 
Q 3559 666 3084 287 
Q 2609 -91 1734 -91 
Q 1441 -91 1130 -33 
Q 819 25 488 141 
L 488 750 
Q 750 597 1062 519 
Q 1375 441 1716 441 
Q 2309 441 2620 675 
Q 2931 909 2931 1356 
Q 2931 1769 2642 2001 
Q 2353 2234 1838 2234 
L 1294 2234 
L 1294 2753 
L 1863 2753 
Q 2328 2753 2575 2939 
Q 2822 3125 2822 3475 
Q 2822 3834 2567 4026 
Q 2313 4219 1838 4219 
Q 1578 4219 1281 4162 
Q 984 4106 628 3988 
L 628 4550 
Q 988 4650 1302 4700 
Q 1616 4750 1894 4750 
Q 2613 4750 3031 4423 
Q 3450 4097 3450 3541 
Q 3450 3153 3228 2886 
Q 3006 2619 2597 2516 
z
" transform="scale(0.015625)"/>
       </defs>
       <use xlink:href="#DejaVuSans-2212"/>
       <use xlink:href="#DejaVuSans-33" x="83.789062"/>
       <use xlink:href="#DejaVuSans-30" x="147.412109"/>
      </g>
     </g>
    </g>
    <g id="xtick_3">
     <g id="line2d_5">
      <path d="M 158.368021 300.76 
L 158.368021 41.24 
" clip-path="url(#p39bf2319c4)" style="fill: none; stroke: #b0b0b0; stroke-width: 0.8; stroke-linecap: square"/>
     </g>
     <g id="line2d_6">
      <g>
       <use xlink:href="#mbd98e56a11" x="158.368021" y="300.76" style="fill: #9467bd; stroke: #9467bd; stroke-width: 0.8"/>
      </g>
     </g>
     <g id="text_3">
      <!-- −20 -->
      <g style="fill: #9467bd" transform="translate(147.815677 315.358437) scale(0.1 -0.1)">
       <defs>
        <path id="DejaVuSans-32" d="M 1228 531 
L 3431 531 
L 3431 0 
L 469 0 
L 469 531 
Q 828 903 1448 1529 
Q 2069 2156 2228 2338 
Q 2531 2678 2651 2914 
Q 2772 3150 2772 3378 
Q 2772 3750 2511 3984 
Q 2250 4219 1831 4219 
Q 1534 4219 1204 4116 
Q 875 4013 500 3803 
L 500 4441 
Q 881 4594 1212 4672 
Q 1544 4750 1819 4750 
Q 2544 4750 2975 4387 
Q 3406 4025 3406 3419 
Q 3406 3131 3298 2873 
Q 3191 2616 2906 2266 
Q 2828 2175 2409 1742 
Q 1991 1309 1228 531 
z
" transform="scale(0.015625)"/>
       </defs>
       <use xlink:href="#DejaVuSans-2212"/>
       <use xlink:href="#DejaVuSans-32" x="83.789062"/>
       <use xlink:href="#DejaVuSans-30" x="147.412109"/>
      </g>
     </g>
    </g>
    <g id="xtick_4">
     <g id="line2d_7">
      <path d="M 195.811635 300.76 
L 195.811635 41.24 
" clip-path="url(#p39bf2319c4)" style="fill: none; stroke: #b0b0b0; stroke-width: 0.8; stroke-linecap: square"/>
     </g>
     <g id="line2d_8">
      <g>
       <use xlink:href="#mbd98e56a11" x="195.811635" y="300.76" style="fill: #9467bd; stroke: #9467bd; stroke-width: 0.8"/>
      </g>
     </g>
     <g id="text_4">
      <!-- −10 -->
      <g style="fill: #9467bd" transform="translate(185.259292 315.358437) scale(0.1 -0.1)">
       <defs>
        <path id="DejaVuSans-31" d="M 794 531 
L 1825 531 
L 1825 4091 
L 703 3866 
L 703 4441 
L 1819 4666 
L 2450 4666 
L 2450 531 
L 3481 531 
L 3481 0 
L 794 0 
L 794 531 
z
" transform="scale(0.015625)"/>
       </defs>
       <use xlink:href="#DejaVuSans-2212"/>
       <use xlink:href="#DejaVuSans-31" x="83.789062"/>
       <use xlink:href="#DejaVuSans-30" x="147.412109"/>
      </g>
     </g>
    </g>
    <g id="xtick_5">
     <g id="line2d_9">
      <path d="M 233.25525 300.76 
L 233.25525 41.24 
" clip-path="url(#p39bf2319c4)" style="fill: none; stroke: #b0b0b0; stroke-width: 0.8; stroke-linecap: square"/>
     </g>
     <g id="line2d_10">
      <g>
       <use xlink:href="#mbd98e56a11" x="233.25525" y="300.76" style="fill: #9467bd; stroke: #9467bd; stroke-width: 0.8"/>
      </g>
     </g>
     <g id="text_5">
      <!-- 0 -->
      <g style="fill: #9467bd" transform="translate(230.074 315.358437) scale(0.1 -0.1)">
       <use xlink:href="#DejaVuSans-30"/>
      </g>
     </g>
    </g>
    <g id="xtick_6">
     <g id="line2d_11">
      <path d="M 270.698865 300.76 
L 270.698865 41.24 
" clip-path="url(#p39bf2319c4)" style="fill: none; stroke: #b0b0b0; stroke-width: 0.8; stroke-linecap: square"/>
     </g>
     <g id="line2d_12">
      <g>
       <use xlink:href="#mbd98e56a11" x="270.698865" y="300.76" style="fill: #9467bd; stroke: #9467bd; stroke-width: 0.8"/>
      </g>
     </g>
     <g id="text_6">
      <!-- 10 -->
      <g style="fill: #9467bd" transform="translate(264.336365 315.358437) scale(0.1 -0.1)">
       <use xlink:href="#DejaVuSans-31"/>
       <use xlink:href="#DejaVuSans-30" x="63.623047"/>
      </g>
     </g>
    </g>
    <g id="xtick_7">
     <g id="line2d_13">
      <path d="M 308.142479 300.76 
L 308.142479 41.24 
" clip-path="url(#p39bf2319c4)" style="fill: none; stroke: #b0b0b0; stroke-width: 0.8; stroke-linecap: square"/>
     </g>
     <g id="line2d_14">
      <g>
       <use xlink:href="#mbd98e56a11" x="308.142479" y="300.76" style="fill: #9467bd; stroke: #9467bd; stroke-width: 0.8"/>
      </g>
     </g>
     <g id="text_7">
      <!-- 20 -->
      <g style="fill: #9467bd" transform="translate(301.779979 315.358437) scale(0.1 -0.1)">
       <use xlink:href="#DejaVuSans-32"/>
       <use xlink:href="#DejaVuSans-30" x="63.623047"/>
      </g>
     </g>
    </g>
    <g id="xtick_8">
     <g id="line2d_15">
      <path d="M 345.586094 300.76 
L 345.586094 41.24 
" clip-path="url(#p39bf2319c4)" style="fill: none; stroke: #b0b0b0; stroke-width: 0.8; stroke-linecap: square"/>
     </g>
     <g id="line2d_16">
      <g>
       <use xlink:href="#mbd98e56a11" x="345.586094" y="300.76" style="fill: #9467bd; stroke: #9467bd; stroke-width: 0.8"/>
      </g>
     </g>
     <g id="text_8">
      <!-- 30 -->
      <g style="fill: #9467bd" transform="translate(339.223594 315.358437) scale(0.1 -0.1)">
       <use xlink:href="#DejaVuSans-33"/>
       <use xlink:href="#DejaVuSans-30" x="63.623047"/>
      </g>
     </g>
    </g>
    <g id="xtick_9">
     <g id="line2d_17">
      <path d="M 383.029709 300.76 
L 383.029709 41.24 
" clip-path="url(#p39bf2319c4)" style="fill: none; stroke: #b0b0b0; stroke-width: 0.8; stroke-linecap: square"/>
     </g>
     <g id="line2d_18">
      <g>
       <use xlink:href="#mbd98e56a11" x="383.029709" y="300.76" style="fill: #9467bd; stroke: #9467bd; stroke-width: 0.8"/>
      </g>
     </g>
     <g id="text_9">
      <!-- 40 -->
      <g style="fill: #9467bd" transform="translate(376.667209 315.358437) scale(0.1 -0.1)">
       <use xlink:href="#DejaVuSans-34"/>
       <use xlink:href="#DejaVuSans-30" x="63.623047"/>
      </g>
     </g>
    </g>
    <g id="text_10">
     <!-- $\delta \varphi [-]$ -->
     <g style="fill: #9467bd" transform="translate(218.80525 329.038125) scale(0.1 -0.1)">
      <defs>
       <path id="DejaVuSans-Oblique-3b4" d="M 3472 4053 
Q 3197 4272 2450 4272 
Q 1659 4272 1588 3906 
Q 1531 3619 2328 3469 
Q 2953 3353 3253 3003 
Q 3616 2581 3447 1716 
Q 3284 888 2763 400 
Q 2238 -91 1488 -91 
Q 741 -91 406 400 
Q 72 888 241 1747 
Q 363 2384 891 2900 
Q 1097 3100 1353 3213 
Q 913 3459 1000 3900 
Q 1166 4750 2544 4750 
Q 3234 4750 3566 4531 
L 3472 4053 
z
M 1753 3056 
Q 1525 2966 1306 2738 
Q 969 2384 847 1747 
Q 722 1113 919 756 
Q 1119 397 1584 397 
Q 2044 397 2381 759 
Q 2722 1122 2838 1716 
Q 2956 2338 2731 2638 
Q 2491 2959 2103 2994 
Q 1906 3013 1753 3056 
z
" transform="scale(0.015625)"/>
       <path id="DejaVuSans-Oblique-3c6" d="M 2969 3034 
Q 2766 3034 2675 2581 
L 2259 438 
Q 2553 438 2916 763 
Q 3244 1053 3375 1750 
Q 3497 2400 3300 2750 
Q 3138 3034 2969 3034 
z
M 3063 3525 
Q 3513 3525 3819 3113 
Q 4147 2672 3981 1750 
Q 3828 903 3291 400 
Q 2784 -75 2159 -75 
L 1916 -1331 
L 1344 -1331 
L 1588 -78 
Q 963 -78 641 400 
Q 309 888 475 1747 
Q 647 2641 1166 3097 
Q 1556 3438 2084 3525 
L 1984 3016 
Q 1766 2944 1538 2700 
Q 1194 2341 1081 1747 
Q 963 1116 1156 756 
Q 1334 434 1688 434 
L 2103 2581 
Q 2288 3525 3063 3525 
z
" transform="scale(0.015625)"/>
       <path id="DejaVuSans-5b" d="M 550 4863 
L 1875 4863 
L 1875 4416 
L 1125 4416 
L 1125 -397 
L 1875 -397 
L 1875 -844 
L 550 -844 
L 550 4863 
z
" transform="scale(0.015625)"/>
       <path id="DejaVuSans-5d" d="M 1947 4863 
L 1947 -844 
L 622 -844 
L 622 -397 
L 1369 -397 
L 1369 4416 
L 622 4416 
L 622 4863 
L 1947 4863 
z
" transform="scale(0.015625)"/>
      </defs>
      <use xlink:href="#DejaVuSans-Oblique-3b4" transform="translate(0 0.015625)"/>
      <use xlink:href="#DejaVuSans-Oblique-3c6" transform="translate(61.181641 0.015625)"/>
      <use xlink:href="#DejaVuSans-5b" transform="translate(127.148438 0.015625)"/>
      <use xlink:href="#DejaVuSans-2212" transform="translate(166.162109 0.015625)"/>
      <use xlink:href="#DejaVuSans-5d" transform="translate(249.951172 0.015625)"/>
     </g>
    </g>
   </g>
   <g id="matplotlib.axis_2">
    <g id="ytick_1">
     <g id="line2d_19">
      <path d="M 70.6025 291.088012 
L 395.908 291.088012 
" clip-path="url(#p39bf2319c4)" style="fill: none; stroke: #b0b0b0; stroke-width: 0.8; stroke-linecap: square"/>
     </g>
     <g id="line2d_20">
      <defs>
       <path id="meb5b75ec93" d="M 0 0 
L -3.5 0 
" style="stroke: #9467bd; stroke-width: 0.8"/>
      </defs>
      <g>
       <use xlink:href="#meb5b75ec93" x="70.6025" y="291.088012" style="fill: #9467bd; stroke: #9467bd; stroke-width: 0.8"/>
      </g>
     </g>
     <g id="text_11">
      <!-- −0.008 -->
      <g style="fill: #9467bd" transform="translate(26.594688 294.88723) scale(0.1 -0.1)">
       <defs>
        <path id="DejaVuSans-2e" d="M 684 794 
L 1344 794 
L 1344 0 
L 684 0 
L 684 794 
z
" transform="scale(0.015625)"/>
        <path id="DejaVuSans-38" d="M 2034 2216 
Q 1584 2216 1326 1975 
Q 1069 1734 1069 1313 
Q 1069 891 1326 650 
Q 1584 409 2034 409 
Q 2484 409 2743 651 
Q 3003 894 3003 1313 
Q 3003 1734 2745 1975 
Q 2488 2216 2034 2216 
z
M 1403 2484 
Q 997 2584 770 2862 
Q 544 3141 544 3541 
Q 544 4100 942 4425 
Q 1341 4750 2034 4750 
Q 2731 4750 3128 4425 
Q 3525 4100 3525 3541 
Q 3525 3141 3298 2862 
Q 3072 2584 2669 2484 
Q 3125 2378 3379 2068 
Q 3634 1759 3634 1313 
Q 3634 634 3220 271 
Q 2806 -91 2034 -91 
Q 1263 -91 848 271 
Q 434 634 434 1313 
Q 434 1759 690 2068 
Q 947 2378 1403 2484 
z
M 1172 3481 
Q 1172 3119 1398 2916 
Q 1625 2713 2034 2713 
Q 2441 2713 2670 2916 
Q 2900 3119 2900 3481 
Q 2900 3844 2670 4047 
Q 2441 4250 2034 4250 
Q 1625 4250 1398 4047 
Q 1172 3844 1172 3481 
z
" transform="scale(0.015625)"/>
       </defs>
       <use xlink:href="#DejaVuSans-2212"/>
       <use xlink:href="#DejaVuSans-30" x="83.789062"/>
       <use xlink:href="#DejaVuSans-2e" x="147.412109"/>
       <use xlink:href="#DejaVuSans-30" x="179.199219"/>
       <use xlink:href="#DejaVuSans-30" x="242.822266"/>
       <use xlink:href="#DejaVuSans-38" x="306.445312"/>
      </g>
     </g>
    </g>
    <g id="ytick_2">
     <g id="line2d_21">
      <path d="M 70.6025 261.066009 
L 395.908 261.066009 
" clip-path="url(#p39bf2319c4)" style="fill: none; stroke: #b0b0b0; stroke-width: 0.8; stroke-linecap: square"/>
     </g>
     <g id="line2d_22">
      <g>
       <use xlink:href="#meb5b75ec93" x="70.6025" y="261.066009" style="fill: #9467bd; stroke: #9467bd; stroke-width: 0.8"/>
      </g>
     </g>
     <g id="text_12">
      <!-- −0.006 -->
      <g style="fill: #9467bd" transform="translate(26.594688 264.865227) scale(0.1 -0.1)">
       <defs>
        <path id="DejaVuSans-36" d="M 2113 2584 
Q 1688 2584 1439 2293 
Q 1191 2003 1191 1497 
Q 1191 994 1439 701 
Q 1688 409 2113 409 
Q 2538 409 2786 701 
Q 3034 994 3034 1497 
Q 3034 2003 2786 2293 
Q 2538 2584 2113 2584 
z
M 3366 4563 
L 3366 3988 
Q 3128 4100 2886 4159 
Q 2644 4219 2406 4219 
Q 1781 4219 1451 3797 
Q 1122 3375 1075 2522 
Q 1259 2794 1537 2939 
Q 1816 3084 2150 3084 
Q 2853 3084 3261 2657 
Q 3669 2231 3669 1497 
Q 3669 778 3244 343 
Q 2819 -91 2113 -91 
Q 1303 -91 875 529 
Q 447 1150 447 2328 
Q 447 3434 972 4092 
Q 1497 4750 2381 4750 
Q 2619 4750 2861 4703 
Q 3103 4656 3366 4563 
z
" transform="scale(0.015625)"/>
       </defs>
       <use xlink:href="#DejaVuSans-2212"/>
       <use xlink:href="#DejaVuSans-30" x="83.789062"/>
       <use xlink:href="#DejaVuSans-2e" x="147.412109"/>
       <use xlink:href="#DejaVuSans-30" x="179.199219"/>
       <use xlink:href="#DejaVuSans-30" x="242.822266"/>
       <use xlink:href="#DejaVuSans-36" x="306.445312"/>
      </g>
     </g>
    </g>
    <g id="ytick_3">
     <g id="line2d_23">
      <path d="M 70.6025 231.044006 
L 395.908 231.044006 
" clip-path="url(#p39bf2319c4)" style="fill: none; stroke: #b0b0b0; stroke-width: 0.8; stroke-linecap: square"/>
     </g>
     <g id="line2d_24">
      <g>
       <use xlink:href="#meb5b75ec93" x="70.6025" y="231.044006" style="fill: #9467bd; stroke: #9467bd; stroke-width: 0.8"/>
      </g>
     </g>
     <g id="text_13">
      <!-- −0.004 -->
      <g style="fill: #9467bd" transform="translate(26.594688 234.843225) scale(0.1 -0.1)">
       <use xlink:href="#DejaVuSans-2212"/>
       <use xlink:href="#DejaVuSans-30" x="83.789062"/>
       <use xlink:href="#DejaVuSans-2e" x="147.412109"/>
       <use xlink:href="#DejaVuSans-30" x="179.199219"/>
       <use xlink:href="#DejaVuSans-30" x="242.822266"/>
       <use xlink:href="#DejaVuSans-34" x="306.445312"/>
      </g>
     </g>
    </g>
    <g id="ytick_4">
     <g id="line2d_25">
      <path d="M 70.6025 201.022003 
L 395.908 201.022003 
" clip-path="url(#p39bf2319c4)" style="fill: none; stroke: #b0b0b0; stroke-width: 0.8; stroke-linecap: square"/>
     </g>
     <g id="line2d_26">
      <g>
       <use xlink:href="#meb5b75ec93" x="70.6025" y="201.022003" style="fill: #9467bd; stroke: #9467bd; stroke-width: 0.8"/>
      </g>
     </g>
     <g id="text_14">
      <!-- −0.002 -->
      <g style="fill: #9467bd" transform="translate(26.594688 204.821222) scale(0.1 -0.1)">
       <use xlink:href="#DejaVuSans-2212"/>
       <use xlink:href="#DejaVuSans-30" x="83.789062"/>
       <use xlink:href="#DejaVuSans-2e" x="147.412109"/>
       <use xlink:href="#DejaVuSans-30" x="179.199219"/>
       <use xlink:href="#DejaVuSans-30" x="242.822266"/>
       <use xlink:href="#DejaVuSans-32" x="306.445312"/>
      </g>
     </g>
    </g>
    <g id="ytick_5">
     <g id="line2d_27">
      <path d="M 70.6025 171 
L 395.908 171 
" clip-path="url(#p39bf2319c4)" style="fill: none; stroke: #b0b0b0; stroke-width: 0.8; stroke-linecap: square"/>
     </g>
     <g id="line2d_28">
      <g>
       <use xlink:href="#meb5b75ec93" x="70.6025" y="171" style="fill: #9467bd; stroke: #9467bd; stroke-width: 0.8"/>
      </g>
     </g>
     <g id="text_15">
      <!-- 0.000 -->
      <g style="fill: #9467bd" transform="translate(34.974375 174.799219) scale(0.1 -0.1)">
       <use xlink:href="#DejaVuSans-30"/>
       <use xlink:href="#DejaVuSans-2e" x="63.623047"/>
       <use xlink:href="#DejaVuSans-30" x="95.410156"/>
       <use xlink:href="#DejaVuSans-30" x="159.033203"/>
       <use xlink:href="#DejaVuSans-30" x="222.65625"/>
      </g>
     </g>
    </g>
    <g id="ytick_6">
     <g id="line2d_29">
      <path d="M 70.6025 140.977997 
L 395.908 140.977997 
" clip-path="url(#p39bf2319c4)" style="fill: none; stroke: #b0b0b0; stroke-width: 0.8; stroke-linecap: square"/>
     </g>
     <g id="line2d_30">
      <g>
       <use xlink:href="#meb5b75ec93" x="70.6025" y="140.977997" style="fill: #9467bd; stroke: #9467bd; stroke-width: 0.8"/>
      </g>
     </g>
     <g id="text_16">
      <!-- 0.002 -->
      <g style="fill: #9467bd" transform="translate(34.974375 144.777216) scale(0.1 -0.1)">
       <use xlink:href="#DejaVuSans-30"/>
       <use xlink:href="#DejaVuSans-2e" x="63.623047"/>
       <use xlink:href="#DejaVuSans-30" x="95.410156"/>
       <use xlink:href="#DejaVuSans-30" x="159.033203"/>
       <use xlink:href="#DejaVuSans-32" x="222.65625"/>
      </g>
     </g>
    </g>
    <g id="ytick_7">
     <g id="line2d_31">
      <path d="M 70.6025 110.955994 
L 395.908 110.955994 
" clip-path="url(#p39bf2319c4)" style="fill: none; stroke: #b0b0b0; stroke-width: 0.8; stroke-linecap: square"/>
     </g>
     <g id="line2d_32">
      <g>
       <use xlink:href="#meb5b75ec93" x="70.6025" y="110.955994" style="fill: #9467bd; stroke: #9467bd; stroke-width: 0.8"/>
      </g>
     </g>
     <g id="text_17">
      <!-- 0.004 -->
      <g style="fill: #9467bd" transform="translate(34.974375 114.755213) scale(0.1 -0.1)">
       <use xlink:href="#DejaVuSans-30"/>
       <use xlink:href="#DejaVuSans-2e" x="63.623047"/>
       <use xlink:href="#DejaVuSans-30" x="95.410156"/>
       <use xlink:href="#DejaVuSans-30" x="159.033203"/>
       <use xlink:href="#DejaVuSans-34" x="222.65625"/>
      </g>
     </g>
    </g>
    <g id="ytick_8">
     <g id="line2d_33">
      <path d="M 70.6025 80.933991 
L 395.908 80.933991 
" clip-path="url(#p39bf2319c4)" style="fill: none; stroke: #b0b0b0; stroke-width: 0.8; stroke-linecap: square"/>
     </g>
     <g id="line2d_34">
      <g>
       <use xlink:href="#meb5b75ec93" x="70.6025" y="80.933991" style="fill: #9467bd; stroke: #9467bd; stroke-width: 0.8"/>
      </g>
     </g>
     <g id="text_18">
      <!-- 0.006 -->
      <g style="fill: #9467bd" transform="translate(34.974375 84.73321) scale(0.1 -0.1)">
       <use xlink:href="#DejaVuSans-30"/>
       <use xlink:href="#DejaVuSans-2e" x="63.623047"/>
       <use xlink:href="#DejaVuSans-30" x="95.410156"/>
       <use xlink:href="#DejaVuSans-30" x="159.033203"/>
       <use xlink:href="#DejaVuSans-36" x="222.65625"/>
      </g>
     </g>
    </g>
    <g id="ytick_9">
     <g id="line2d_35">
      <path d="M 70.6025 50.911988 
L 395.908 50.911988 
" clip-path="url(#p39bf2319c4)" style="fill: none; stroke: #b0b0b0; stroke-width: 0.8; stroke-linecap: square"/>
     </g>
     <g id="line2d_36">
      <g>
       <use xlink:href="#meb5b75ec93" x="70.6025" y="50.911988" style="fill: #9467bd; stroke: #9467bd; stroke-width: 0.8"/>
      </g>
     </g>
     <g id="text_19">
      <!-- 0.008 -->
      <g style="fill: #9467bd" transform="translate(34.974375 54.711207) scale(0.1 -0.1)">
       <use xlink:href="#DejaVuSans-30"/>
       <use xlink:href="#DejaVuSans-2e" x="63.623047"/>
       <use xlink:href="#DejaVuSans-30" x="95.410156"/>
       <use xlink:href="#DejaVuSans-30" x="159.033203"/>
       <use xlink:href="#DejaVuSans-38" x="222.65625"/>
      </g>
     </g>
    </g>
    <g id="text_20">
     <!-- $Q [-]$ -->
     <g style="fill: #9467bd" transform="translate(20.515 183.05) rotate(-90) scale(0.1 -0.1)">
      <defs>
       <path id="DejaVuSans-Oblique-51" d="M 2309 -84 
Q 2275 -88 2237 -89 
Q 2200 -91 2125 -91 
Q 1250 -91 756 411 
Q 263 913 263 1797 
Q 263 2319 452 2844 
Q 641 3369 978 3788 
Q 1369 4269 1858 4509 
Q 2347 4750 2938 4750 
Q 3794 4750 4287 4245 
Q 4781 3741 4781 2869 
Q 4781 1928 4265 1147 
Q 3750 366 2919 44 
L 3553 -825 
L 2847 -825 
L 2309 -84 
z
M 2919 4238 
Q 2400 4238 2003 3986 
Q 1606 3734 1313 3219 
Q 1125 2891 1026 2522 
Q 928 2153 928 1778 
Q 928 1128 1239 775 
Q 1550 422 2119 422 
Q 2631 422 3032 676 
Q 3434 931 3719 1434 
Q 3909 1772 4009 2142 
Q 4109 2513 4109 2881 
Q 4109 3528 3796 3883 
Q 3484 4238 2919 4238 
z
" transform="scale(0.015625)"/>
      </defs>
      <use xlink:href="#DejaVuSans-Oblique-51" transform="translate(0 0.015625)"/>
      <use xlink:href="#DejaVuSans-5b" transform="translate(78.710938 0.015625)"/>
      <use xlink:href="#DejaVuSans-2212" transform="translate(117.724609 0.015625)"/>
      <use xlink:href="#DejaVuSans-5d" transform="translate(201.513672 0.015625)"/>
     </g>
    </g>
   </g>
   <g id="line2d_37">
    <path d="M 85.389114 288.963636 
L 95.800972 283.526792 
L 105.502931 278.212777 
L 114.613307 272.970984 
L 123.072942 267.849909 
L 130.940994 262.830982 
L 138.276622 257.890936 
L 145.079824 253.044021 
L 151.350603 248.307759 
L 157.148115 243.654807 
L 162.472361 239.102291 
L 167.382498 234.615986 
L 171.878528 230.211456 
L 176.019608 225.844954 
L 179.805738 221.529943 
L 183.296077 217.212382 
L 186.490625 212.909144 
L 189.507697 208.475771 
L 192.52477 203.640119 
L 195.837634 197.892531 
L 202.404204 186.361971 
L 204.474744 183.257774 
L 206.308651 180.888938 
L 208.083399 178.95415 
L 209.858148 177.352986 
L 211.632896 176.0486 
L 213.525962 174.934812 
L 215.537343 174.007697 
L 217.785358 173.216539 
L 220.388323 172.542258 
L 223.523712 171.971238 
L 227.546475 171.479877 
L 234.29052 170.920604 
L 241.093723 170.285396 
L 244.879853 169.710077 
L 247.778609 169.054587 
L 250.204099 168.288792 
L 252.333797 167.39127 
L 254.286021 166.327806 
L 256.060769 165.11267 
L 257.77636 163.670001 
L 259.49195 161.926751 
L 261.20754 159.858514 
L 263.041447 157.287625 
L 265.171145 153.890731 
L 268.12906 148.696093 
L 273.926572 138.458774 
L 277.061961 133.433519 
L 280.138192 128.924686 
L 283.332739 124.635122 
L 286.76392 120.399894 
L 290.490892 116.155046 
L 294.572814 111.848674 
L 299.009685 107.496022 
L 303.860665 103.05471 
L 309.125752 98.541455 
L 314.804948 93.969039 
L 320.957409 89.303853 
L 327.583137 84.560927 
L 334.74129 79.713377 
L 342.431867 74.777015 
L 350.654869 69.764833 
L 359.469454 64.654071 
L 368.934779 59.426368 
L 378.991688 54.127868 
L 381.121386 53.036364 
L 381.121386 53.036364 
" clip-path="url(#p39bf2319c4)" style="fill: none; stroke: #1f77b4; stroke-width: 1.5; stroke-linecap: square"/>
   </g>
   <g id="line2d_38">
    <path d="M 85.389114 208.303377 
L 102.663333 205.40399 
L 117.926171 202.621757 
L 131.355102 199.953563 
L 143.127601 197.393532 
L 153.361984 194.94662 
L 162.235727 192.601855 
L 169.807988 190.378133 
L 176.3154 188.240694 
L 181.81712 186.206246 
L 186.549783 184.226495 
L 190.80918 182.207201 
L 195.068576 179.936673 
L 203.764844 175.197496 
L 206.426967 174.082925 
L 209.029932 173.232802 
L 211.810371 172.55989 
L 215.004919 172.021612 
L 218.909366 171.600231 
L 224.056136 171.282566 
L 232.397455 171.020782 
L 244.465745 170.616113 
L 249.4942 170.221404 
L 253.221172 169.716068 
L 256.297402 169.080582 
L 259.018684 168.292901 
L 261.621648 167.303241 
L 264.342929 166.021803 
L 267.951585 164.048044 
L 275.168896 160.063121 
L 279.369134 158.03934 
L 283.865164 156.122916 
L 289.011935 154.176678 
L 294.986922 152.162006 
L 301.908441 150.067706 
L 309.953968 147.870103 
L 319.241819 145.568175 
L 329.890311 143.162259 
L 342.076917 140.6419 
L 355.860798 138.022539 
L 371.419427 135.29605 
L 381.121386 133.696623 
L 381.121386 133.696623 
" clip-path="url(#p39bf2319c4)" style="fill: none; stroke: #ff7f0e; stroke-width: 1.5; stroke-linecap: square"/>
   </g>
   <g id="line2d_39">
    <path d="M 85.389114 182.796364 
L 114.968257 181.176129 
L 138.513255 179.672689 
L 156.911482 178.285054 
L 170.991154 177.010623 
L 181.521329 175.845304 
L 189.507697 174.747577 
L 196.843325 173.508442 
L 204.829693 172.177011 
L 209.325723 171.680027 
L 214.472494 171.346912 
L 221.571488 171.130109 
L 235.059578 170.986073 
L 249.13925 170.765421 
L 255.528345 170.450485 
L 260.320166 169.996961 
L 264.875354 169.338484 
L 283.806006 166.30297 
L 292.97554 165.249576 
L 304.925514 164.111807 
L 320.424985 162.869699 
L 340.124694 161.523092 
L 364.734541 160.071529 
L 381.121386 159.203636 
L 381.121386 159.203636 
" clip-path="url(#p39bf2319c4)" style="fill: none; stroke: #2ca02c; stroke-width: 1.5; stroke-linecap: square"/>
   </g>
   <g id="patch_3">
    <path d="M 70.6025 300.76 
L 70.6025 41.24 
" style="fill: none; stroke: #000000; stroke-width: 0.8; stroke-linejoin: miter; stroke-linecap: square"/>
   </g>
   <g id="patch_4">
    <path d="M 395.908 300.76 
L 395.908 41.24 
" style="fill: none; stroke: #000000; stroke-width: 0.8; stroke-linejoin: miter; stroke-linecap: square"/>
   </g>
   <g id="patch_5">
    <path d="M 70.6025 300.76 
L 395.908 300.76 
" style="fill: none; stroke: #000000; stroke-width: 0.8; stroke-linejoin: miter; stroke-linecap: square"/>
   </g>
   <g id="patch_6">
    <path d="M 70.6025 41.24 
L 395.908 41.24 
" style="fill: none; stroke: #000000; stroke-width: 0.8; stroke-linejoin: miter; stroke-linecap: square"/>
   </g>
  </g>
  <g id="axes_2">
   <g id="matplotlib.axis_3">
    <g id="xtick_10">
     <g id="line2d_40">
      <defs>
       <path id="m966416f58d" d="M 0 0 
L 0 -3.5 
" style="stroke: #d62728; stroke-width: 0.8"/>
      </defs>
      <g>
       <use xlink:href="#m966416f58d" x="85.389114" y="41.24" style="fill: #d62728; stroke: #d62728; stroke-width: 0.8"/>
      </g>
     </g>
     <g id="text_21">
      <!-- −1.00 -->
      <g style="fill: #d62728" transform="translate(70.066457 32.160312) scale(0.1 -0.1)">
       <use xlink:href="#DejaVuSans-2212"/>
       <use xlink:href="#DejaVuSans-31" x="83.789062"/>
       <use xlink:href="#DejaVuSans-2e" x="147.412109"/>
       <use xlink:href="#DejaVuSans-30" x="179.199219"/>
       <use xlink:href="#DejaVuSans-30" x="242.822266"/>
      </g>
     </g>
    </g>
    <g id="xtick_11">
     <g id="line2d_41">
      <g>
       <use xlink:href="#m966416f58d" x="122.355648" y="41.24" style="fill: #d62728; stroke: #d62728; stroke-width: 0.8"/>
      </g>
     </g>
     <g id="text_22">
      <!-- −0.75 -->
      <g style="fill: #d62728" transform="translate(107.032991 32.160312) scale(0.1 -0.1)">
       <defs>
        <path id="DejaVuSans-37" d="M 525 4666 
L 3525 4666 
L 3525 4397 
L 1831 0 
L 1172 0 
L 2766 4134 
L 525 4134 
L 525 4666 
z
" transform="scale(0.015625)"/>
        <path id="DejaVuSans-35" d="M 691 4666 
L 3169 4666 
L 3169 4134 
L 1269 4134 
L 1269 2991 
Q 1406 3038 1543 3061 
Q 1681 3084 1819 3084 
Q 2600 3084 3056 2656 
Q 3513 2228 3513 1497 
Q 3513 744 3044 326 
Q 2575 -91 1722 -91 
Q 1428 -91 1123 -41 
Q 819 9 494 109 
L 494 744 
Q 775 591 1075 516 
Q 1375 441 1709 441 
Q 2250 441 2565 725 
Q 2881 1009 2881 1497 
Q 2881 1984 2565 2268 
Q 2250 2553 1709 2553 
Q 1456 2553 1204 2497 
Q 953 2441 691 2322 
L 691 4666 
z
" transform="scale(0.015625)"/>
       </defs>
       <use xlink:href="#DejaVuSans-2212"/>
       <use xlink:href="#DejaVuSans-30" x="83.789062"/>
       <use xlink:href="#DejaVuSans-2e" x="147.412109"/>
       <use xlink:href="#DejaVuSans-37" x="179.199219"/>
       <use xlink:href="#DejaVuSans-35" x="242.822266"/>
      </g>
     </g>
    </g>
    <g id="xtick_12">
     <g id="line2d_42">
      <g>
       <use xlink:href="#m966416f58d" x="159.322182" y="41.24" style="fill: #d62728; stroke: #d62728; stroke-width: 0.8"/>
      </g>
     </g>
     <g id="text_23">
      <!-- −0.50 -->
      <g style="fill: #d62728" transform="translate(143.999526 32.160312) scale(0.1 -0.1)">
       <use xlink:href="#DejaVuSans-2212"/>
       <use xlink:href="#DejaVuSans-30" x="83.789062"/>
       <use xlink:href="#DejaVuSans-2e" x="147.412109"/>
       <use xlink:href="#DejaVuSans-35" x="179.199219"/>
       <use xlink:href="#DejaVuSans-30" x="242.822266"/>
      </g>
     </g>
    </g>
    <g id="xtick_13">
     <g id="line2d_43">
      <g>
       <use xlink:href="#m966416f58d" x="196.288716" y="41.24" style="fill: #d62728; stroke: #d62728; stroke-width: 0.8"/>
      </g>
     </g>
     <g id="text_24">
      <!-- −0.25 -->
      <g style="fill: #d62728" transform="translate(180.96606 32.160312) scale(0.1 -0.1)">
       <use xlink:href="#DejaVuSans-2212"/>
       <use xlink:href="#DejaVuSans-30" x="83.789062"/>
       <use xlink:href="#DejaVuSans-2e" x="147.412109"/>
       <use xlink:href="#DejaVuSans-32" x="179.199219"/>
       <use xlink:href="#DejaVuSans-35" x="242.822266"/>
      </g>
     </g>
    </g>
    <g id="xtick_14">
     <g id="line2d_44">
      <g>
       <use xlink:href="#m966416f58d" x="233.25525" y="41.24" style="fill: #d62728; stroke: #d62728; stroke-width: 0.8"/>
      </g>
     </g>
     <g id="text_25">
      <!-- 0.00 -->
      <g style="fill: #d62728" transform="translate(222.122437 32.160312) scale(0.1 -0.1)">
       <use xlink:href="#DejaVuSans-30"/>
       <use xlink:href="#DejaVuSans-2e" x="63.623047"/>
       <use xlink:href="#DejaVuSans-30" x="95.410156"/>
       <use xlink:href="#DejaVuSans-30" x="159.033203"/>
      </g>
     </g>
    </g>
    <g id="xtick_15">
     <g id="line2d_45">
      <g>
       <use xlink:href="#m966416f58d" x="270.221784" y="41.24" style="fill: #d62728; stroke: #d62728; stroke-width: 0.8"/>
      </g>
     </g>
     <g id="text_26">
      <!-- 0.25 -->
      <g style="fill: #d62728" transform="translate(259.088972 32.160312) scale(0.1 -0.1)">
       <use xlink:href="#DejaVuSans-30"/>
       <use xlink:href="#DejaVuSans-2e" x="63.623047"/>
       <use xlink:href="#DejaVuSans-32" x="95.410156"/>
       <use xlink:href="#DejaVuSans-35" x="159.033203"/>
      </g>
     </g>
    </g>
    <g id="xtick_16">
     <g id="line2d_46">
      <g>
       <use xlink:href="#m966416f58d" x="307.188318" y="41.24" style="fill: #d62728; stroke: #d62728; stroke-width: 0.8"/>
      </g>
     </g>
     <g id="text_27">
      <!-- 0.50 -->
      <g style="fill: #d62728" transform="translate(296.055506 32.160312) scale(0.1 -0.1)">
       <use xlink:href="#DejaVuSans-30"/>
       <use xlink:href="#DejaVuSans-2e" x="63.623047"/>
       <use xlink:href="#DejaVuSans-35" x="95.410156"/>
       <use xlink:href="#DejaVuSans-30" x="159.033203"/>
      </g>
     </g>
    </g>
    <g id="xtick_17">
     <g id="line2d_47">
      <g>
       <use xlink:href="#m966416f58d" x="344.154852" y="41.24" style="fill: #d62728; stroke: #d62728; stroke-width: 0.8"/>
      </g>
     </g>
     <g id="text_28">
      <!-- 0.75 -->
      <g style="fill: #d62728" transform="translate(333.02204 32.160312) scale(0.1 -0.1)">
       <use xlink:href="#DejaVuSans-30"/>
       <use xlink:href="#DejaVuSans-2e" x="63.623047"/>
       <use xlink:href="#DejaVuSans-37" x="95.410156"/>
       <use xlink:href="#DejaVuSans-35" x="159.033203"/>
      </g>
     </g>
    </g>
    <g id="xtick_18">
     <g id="line2d_48">
      <g>
       <use xlink:href="#m966416f58d" x="381.121386" y="41.24" style="fill: #d62728; stroke: #d62728; stroke-width: 0.8"/>
      </g>
     </g>
     <g id="text_29">
      <!-- 1.00 -->
      <g style="fill: #d62728" transform="translate(369.988574 32.160312) scale(0.1 -0.1)">
       <use xlink:href="#DejaVuSans-31"/>
       <use xlink:href="#DejaVuSans-2e" x="63.623047"/>
       <use xlink:href="#DejaVuSans-30" x="95.410156"/>
       <use xlink:href="#DejaVuSans-30" x="159.033203"/>
      </g>
     </g>
    </g>
    <g id="text_30">
     <!-- $\delta \varphi [nm]$ -->
     <g style="fill: #d62728" transform="translate(214.95525 20.561875) scale(0.1 -0.1)">
      <defs>
       <path id="DejaVuSans-Oblique-6e" d="M 3566 2113 
L 3156 0 
L 2578 0 
L 2988 2091 
Q 3016 2238 3031 2350 
Q 3047 2463 3047 2528 
Q 3047 2791 2881 2937 
Q 2716 3084 2419 3084 
Q 1956 3084 1622 2776 
Q 1288 2469 1184 1941 
L 800 0 
L 225 0 
L 903 3500 
L 1478 3500 
L 1363 2950 
Q 1603 3253 1940 3418 
Q 2278 3584 2650 3584 
Q 3113 3584 3367 3334 
Q 3622 3084 3622 2631 
Q 3622 2519 3608 2391 
Q 3594 2263 3566 2113 
z
" transform="scale(0.015625)"/>
       <path id="DejaVuSans-Oblique-6d" d="M 5747 2113 
L 5338 0 
L 4763 0 
L 5166 2094 
Q 5191 2228 5203 2325 
Q 5216 2422 5216 2491 
Q 5216 2772 5059 2928 
Q 4903 3084 4622 3084 
Q 4203 3084 3875 2770 
Q 3547 2456 3450 1953 
L 3066 0 
L 2491 0 
L 2900 2094 
Q 2925 2209 2937 2307 
Q 2950 2406 2950 2484 
Q 2950 2769 2794 2926 
Q 2638 3084 2363 3084 
Q 1938 3084 1609 2770 
Q 1281 2456 1184 1953 
L 800 0 
L 225 0 
L 909 3500 
L 1484 3500 
L 1375 2956 
Q 1609 3263 1923 3423 
Q 2238 3584 2597 3584 
Q 2978 3584 3223 3384 
Q 3469 3184 3519 2828 
Q 3781 3197 4126 3390 
Q 4472 3584 4856 3584 
Q 5306 3584 5551 3325 
Q 5797 3066 5797 2591 
Q 5797 2488 5784 2364 
Q 5772 2241 5747 2113 
z
" transform="scale(0.015625)"/>
      </defs>
      <use xlink:href="#DejaVuSans-Oblique-3b4" transform="translate(0 0.015625)"/>
      <use xlink:href="#DejaVuSans-Oblique-3c6" transform="translate(61.181641 0.015625)"/>
      <use xlink:href="#DejaVuSans-5b" transform="translate(127.148438 0.015625)"/>
      <use xlink:href="#DejaVuSans-Oblique-6e" transform="translate(166.162109 0.015625)"/>
      <use xlink:href="#DejaVuSans-Oblique-6d" transform="translate(229.541016 0.015625)"/>
      <use xlink:href="#DejaVuSans-5d" transform="translate(326.953125 0.015625)"/>
     </g>
    </g>
   </g>
   <g id="matplotlib.axis_4">
    <g id="ytick_10">
     <g id="line2d_49">
      <defs>
       <path id="mffa9b7f924" d="M 0 0 
L 3.5 0 
" style="stroke: #d62728; stroke-width: 0.8"/>
      </defs>
      <g>
       <use xlink:href="#mffa9b7f924" x="395.908" y="277.09013" style="fill: #d62728; stroke: #d62728; stroke-width: 0.8"/>
      </g>
     </g>
     <g id="text_31">
      <!-- −750 -->
      <g style="fill: #d62728" transform="translate(402.908 280.889349) scale(0.1 -0.1)">
       <use xlink:href="#DejaVuSans-2212"/>
       <use xlink:href="#DejaVuSans-37" x="83.789062"/>
       <use xlink:href="#DejaVuSans-35" x="147.412109"/>
       <use xlink:href="#DejaVuSans-30" x="211.035156"/>
      </g>
     </g>
    </g>
    <g id="ytick_11">
     <g id="line2d_50">
      <g>
       <use xlink:href="#mffa9b7f924" x="395.908" y="241.726753" style="fill: #d62728; stroke: #d62728; stroke-width: 0.8"/>
      </g>
     </g>
     <g id="text_32">
      <!-- −500 -->
      <g style="fill: #d62728" transform="translate(402.908 245.525972) scale(0.1 -0.1)">
       <use xlink:href="#DejaVuSans-2212"/>
       <use xlink:href="#DejaVuSans-35" x="83.789062"/>
       <use xlink:href="#DejaVuSans-30" x="147.412109"/>
       <use xlink:href="#DejaVuSans-30" x="211.035156"/>
      </g>
     </g>
    </g>
    <g id="ytick_12">
     <g id="line2d_51">
      <g>
       <use xlink:href="#mffa9b7f924" x="395.908" y="206.363377" style="fill: #d62728; stroke: #d62728; stroke-width: 0.8"/>
      </g>
     </g>
     <g id="text_33">
      <!-- −250 -->
      <g style="fill: #d62728" transform="translate(402.908 210.162595) scale(0.1 -0.1)">
       <use xlink:href="#DejaVuSans-2212"/>
       <use xlink:href="#DejaVuSans-32" x="83.789062"/>
       <use xlink:href="#DejaVuSans-35" x="147.412109"/>
       <use xlink:href="#DejaVuSans-30" x="211.035156"/>
      </g>
     </g>
    </g>
    <g id="ytick_13">
     <g id="line2d_52">
      <g>
       <use xlink:href="#mffa9b7f924" x="395.908" y="171" style="fill: #d62728; stroke: #d62728; stroke-width: 0.8"/>
      </g>
     </g>
     <g id="text_34">
      <!-- 0 -->
      <g style="fill: #d62728" transform="translate(402.908 174.799219) scale(0.1 -0.1)">
       <use xlink:href="#DejaVuSans-30"/>
      </g>
     </g>
    </g>
    <g id="ytick_14">
     <g id="line2d_53">
      <g>
       <use xlink:href="#mffa9b7f924" x="395.908" y="135.636623" style="fill: #d62728; stroke: #d62728; stroke-width: 0.8"/>
      </g>
     </g>
     <g id="text_35">
      <!-- 250 -->
      <g style="fill: #d62728" transform="translate(402.908 139.435842) scale(0.1 -0.1)">
       <use xlink:href="#DejaVuSans-32"/>
       <use xlink:href="#DejaVuSans-35" x="63.623047"/>
       <use xlink:href="#DejaVuSans-30" x="127.246094"/>
      </g>
     </g>
    </g>
    <g id="ytick_15">
     <g id="line2d_54">
      <g>
       <use xlink:href="#mffa9b7f924" x="395.908" y="100.273247" style="fill: #d62728; stroke: #d62728; stroke-width: 0.8"/>
      </g>
     </g>
     <g id="text_36">
      <!-- 500 -->
      <g style="fill: #d62728" transform="translate(402.908 104.072465) scale(0.1 -0.1)">
       <use xlink:href="#DejaVuSans-35"/>
       <use xlink:href="#DejaVuSans-30" x="63.623047"/>
       <use xlink:href="#DejaVuSans-30" x="127.246094"/>
      </g>
     </g>
    </g>
    <g id="ytick_16">
     <g id="line2d_55">
      <g>
       <use xlink:href="#mffa9b7f924" x="395.908" y="64.90987" style="fill: #d62728; stroke: #d62728; stroke-width: 0.8"/>
      </g>
     </g>
     <g id="text_37">
      <!-- 750 -->
      <g style="fill: #d62728" transform="translate(402.908 68.709089) scale(0.1 -0.1)">
       <use xlink:href="#DejaVuSans-37"/>
       <use xlink:href="#DejaVuSans-35" x="63.623047"/>
       <use xlink:href="#DejaVuSans-30" x="127.246094"/>
      </g>
     </g>
    </g>
    <g id="text_38">
     <!-- $Q$ [μ$F/cm^3]$ -->
     <g style="fill: #d62728" transform="translate(443.475188 198.4) rotate(-90) scale(0.1 -0.1)">
      <defs>
       <path id="DejaVuSans-20" transform="scale(0.015625)"/>
       <path id="DejaVuSans-3bc" d="M 544 -1331 
L 544 3500 
L 1119 3500 
L 1119 1325 
Q 1119 872 1334 640 
Q 1550 409 1972 409 
Q 2434 409 2667 671 
Q 2900 934 2900 1459 
L 2900 3500 
L 3475 3500 
L 3475 806 
Q 3475 619 3529 530 
Q 3584 441 3700 441 
Q 3728 441 3778 458 
Q 3828 475 3916 513 
L 3916 50 
Q 3788 -22 3673 -56 
Q 3559 -91 3450 -91 
Q 3234 -91 3106 31 
Q 2978 153 2931 403 
Q 2775 156 2548 32 
Q 2322 -91 2016 -91 
Q 1697 -91 1473 31 
Q 1250 153 1119 397 
L 1119 -1331 
L 544 -1331 
z
" transform="scale(0.015625)"/>
       <path id="DejaVuSans-Oblique-46" d="M 1081 4666 
L 3756 4666 
L 3653 4134 
L 1606 4134 
L 1338 2759 
L 3188 2759 
L 3084 2228 
L 1234 2228 
L 800 0 
L 172 0 
L 1081 4666 
z
" transform="scale(0.015625)"/>
       <path id="DejaVuSans-2f" d="M 1625 4666 
L 2156 4666 
L 531 -594 
L 0 -594 
L 1625 4666 
z
" transform="scale(0.015625)"/>
       <path id="DejaVuSans-Oblique-63" d="M 3431 3366 
L 3316 2797 
Q 3109 2947 2876 3022 
Q 2644 3097 2394 3097 
Q 2119 3097 1870 3000 
Q 1622 2903 1453 2725 
Q 1184 2453 1037 2087 
Q 891 1722 891 1331 
Q 891 859 1127 628 
Q 1363 397 1844 397 
Q 2081 397 2348 469 
Q 2616 541 2906 684 
L 2797 116 
Q 2547 13 2283 -39 
Q 2019 -91 1741 -91 
Q 1044 -91 669 257 
Q 294 606 294 1253 
Q 294 1797 489 2255 
Q 684 2713 1069 3078 
Q 1331 3328 1684 3456 
Q 2038 3584 2456 3584 
Q 2700 3584 2940 3529 
Q 3181 3475 3431 3366 
z
" transform="scale(0.015625)"/>
      </defs>
      <use xlink:href="#DejaVuSans-Oblique-51" transform="translate(0 0.765625)"/>
      <use xlink:href="#DejaVuSans-20" transform="translate(78.710938 0.765625)"/>
      <use xlink:href="#DejaVuSans-5b" transform="translate(110.498047 0.765625)"/>
      <use xlink:href="#DejaVuSans-3bc" transform="translate(149.511719 0.765625)"/>
      <use xlink:href="#DejaVuSans-Oblique-46" transform="translate(213.134766 0.765625)"/>
      <use xlink:href="#DejaVuSans-2f" transform="translate(270.654297 0.765625)"/>
      <use xlink:href="#DejaVuSans-Oblique-63" transform="translate(304.345703 0.765625)"/>
      <use xlink:href="#DejaVuSans-Oblique-6d" transform="translate(359.326172 0.765625)"/>
      <use xlink:href="#DejaVuSans-33" transform="translate(461.388177 39.046875) scale(0.7)"/>
      <use xlink:href="#DejaVuSans-5d" transform="translate(508.658685 0.765625)"/>
     </g>
    </g>
   </g>
   <g id="line2d_56">
    <path d="M 85.389114 288.963636 
L 95.800972 283.526792 
L 105.502931 278.212777 
L 114.613307 272.970984 
L 123.072942 267.849909 
L 130.940994 262.830982 
L 138.276622 257.890936 
L 145.079824 253.044021 
L 151.350603 248.307759 
L 157.148115 243.654807 
L 162.472361 239.102291 
L 167.382498 234.615986 
L 171.878528 230.211456 
L 176.019608 225.844954 
L 179.805738 221.529943 
L 183.296077 217.212382 
L 186.490625 212.909144 
L 189.507697 208.475771 
L 192.52477 203.640119 
L 195.837634 197.892531 
L 202.404204 186.361971 
L 204.474744 183.257774 
L 206.308651 180.888938 
L 208.083399 178.95415 
L 209.858148 177.352986 
L 211.632896 176.0486 
L 213.525962 174.934812 
L 215.537343 174.007697 
L 217.785358 173.216539 
L 220.388323 172.542258 
L 223.523712 171.971238 
L 227.546475 171.479877 
L 234.29052 170.920604 
L 241.093723 170.285396 
L 244.879853 169.710077 
L 247.778609 169.054587 
L 250.204099 168.288792 
L 252.333797 167.39127 
L 254.286021 166.327806 
L 256.060769 165.11267 
L 257.77636 163.670001 
L 259.49195 161.926751 
L 261.20754 159.858514 
L 263.041447 157.287625 
L 265.171145 153.890731 
L 268.12906 148.696093 
L 273.926572 138.458774 
L 277.061961 133.433519 
L 280.138192 128.924686 
L 283.332739 124.635122 
L 286.76392 120.399894 
L 290.490892 116.155046 
L 294.572814 111.848674 
L 299.009685 107.496022 
L 303.860665 103.05471 
L 309.125752 98.541455 
L 314.804948 93.969039 
L 320.957409 89.303853 
L 327.583137 84.560927 
L 334.74129 79.713377 
L 342.431867 74.777015 
L 350.654869 69.764833 
L 359.469454 64.654071 
L 368.934779 59.426368 
L 378.991688 54.127868 
L 381.121386 53.036364 
L 381.121386 53.036364 
" clip-path="url(#p39bf2319c4)" style="fill: none; stroke: #1f77b4; stroke-width: 1.5; stroke-linecap: square"/>
   </g>
   <g id="line2d_57">
    <path d="M 85.389114 208.303377 
L 102.663333 205.40399 
L 117.926171 202.621757 
L 131.355102 199.953563 
L 143.127601 197.393532 
L 153.361984 194.94662 
L 162.235727 192.601855 
L 169.807988 190.378133 
L 176.3154 188.240694 
L 181.81712 186.206246 
L 186.549783 184.226495 
L 190.80918 182.207201 
L 195.068576 179.936673 
L 203.764844 175.197496 
L 206.426967 174.082925 
L 209.029932 173.232802 
L 211.810371 172.55989 
L 215.004919 172.021612 
L 218.909366 171.600231 
L 224.056136 171.282566 
L 232.397455 171.020782 
L 244.465745 170.616113 
L 249.4942 170.221404 
L 253.221172 169.716068 
L 256.297402 169.080582 
L 259.018684 168.292901 
L 261.621648 167.303241 
L 264.342929 166.021803 
L 267.951585 164.048044 
L 275.168896 160.063121 
L 279.369134 158.03934 
L 283.865164 156.122916 
L 289.011935 154.176678 
L 294.986922 152.162006 
L 301.908441 150.067706 
L 309.953968 147.870103 
L 319.241819 145.568175 
L 329.890311 143.162259 
L 342.076917 140.6419 
L 355.860798 138.022539 
L 371.419427 135.29605 
L 381.121386 133.696623 
L 381.121386 133.696623 
" clip-path="url(#p39bf2319c4)" style="fill: none; stroke: #ff7f0e; stroke-width: 1.5; stroke-linecap: square"/>
   </g>
   <g id="line2d_58">
    <path d="M 85.389114 182.796364 
L 114.968257 181.176129 
L 138.513255 179.672689 
L 156.911482 178.285054 
L 170.991154 177.010623 
L 181.521329 175.845304 
L 189.507697 174.747577 
L 196.843325 173.508442 
L 204.829693 172.177011 
L 209.325723 171.680027 
L 214.472494 171.346912 
L 221.571488 171.130109 
L 235.059578 170.986073 
L 249.13925 170.765421 
L 255.528345 170.450485 
L 260.320166 169.996961 
L 264.875354 169.338484 
L 283.806006 166.30297 
L 292.97554 165.249576 
L 304.925514 164.111807 
L 320.424985 162.869699 
L 340.124694 161.523092 
L 364.734541 160.071529 
L 381.121386 159.203636 
L 381.121386 159.203636 
" clip-path="url(#p39bf2319c4)" style="fill: none; stroke: #2ca02c; stroke-width: 1.5; stroke-linecap: square"/>
   </g>
  </g>
  <g id="legend_1">
   <g id="patch_7">
    <path d="M 375 52.034375 
L 453.8 52.034375 
Q 455.8 52.034375 455.8 50.034375 
L 455.8 7 
Q 455.8 5 453.8 5 
L 375 5 
Q 373 5 373 7 
L 373 50.034375 
Q 373 52.034375 375 52.034375 
z
" style="fill: #ffffff; opacity: 0.8; stroke: #cccccc; stroke-linejoin: miter"/>
   </g>
   <g id="line2d_59">
    <path d="M 377 13.098437 
L 387 13.098437 
L 397 13.098437 
" style="fill: none; stroke: #1f77b4; stroke-width: 1.5; stroke-linecap: square"/>
   </g>
   <g id="text_39">
    <!-- $\lambda^2$: 1e-06 -->
    <g transform="translate(405 16.598437) scale(0.1 -0.1)">
     <defs>
      <path id="DejaVuSans-Oblique-3bb" d="M 2350 4316 
L 3125 0 
L 2516 0 
L 2038 2588 
L 328 0 
L -281 0 
L 1903 3356 
L 1794 3975 
Q 1725 4369 1391 4369 
L 1091 4369 
L 1184 4863 
L 1550 4856 
Q 2253 4847 2350 4316 
z
" transform="scale(0.015625)"/>
      <path id="DejaVuSans-3a" d="M 750 794 
L 1409 794 
L 1409 0 
L 750 0 
L 750 794 
z
M 750 3309 
L 1409 3309 
L 1409 2516 
L 750 2516 
L 750 3309 
z
" transform="scale(0.015625)"/>
      <path id="DejaVuSans-65" d="M 3597 1894 
L 3597 1613 
L 953 1613 
Q 991 1019 1311 708 
Q 1631 397 2203 397 
Q 2534 397 2845 478 
Q 3156 559 3463 722 
L 3463 178 
Q 3153 47 2828 -22 
Q 2503 -91 2169 -91 
Q 1331 -91 842 396 
Q 353 884 353 1716 
Q 353 2575 817 3079 
Q 1281 3584 2069 3584 
Q 2775 3584 3186 3129 
Q 3597 2675 3597 1894 
z
M 3022 2063 
Q 3016 2534 2758 2815 
Q 2500 3097 2075 3097 
Q 1594 3097 1305 2825 
Q 1016 2553 972 2059 
L 3022 2063 
z
" transform="scale(0.015625)"/>
      <path id="DejaVuSans-2d" d="M 313 2009 
L 1997 2009 
L 1997 1497 
L 313 1497 
L 313 2009 
z
" transform="scale(0.015625)"/>
     </defs>
     <use xlink:href="#DejaVuSans-Oblique-3bb" transform="translate(0 0.765625)"/>
     <use xlink:href="#DejaVuSans-32" transform="translate(66.627396 39.046875) scale(0.7)"/>
     <use xlink:href="#DejaVuSans-3a" transform="translate(113.897904 0.765625)"/>
     <use xlink:href="#DejaVuSans-20" transform="translate(147.58931 0.765625)"/>
     <use xlink:href="#DejaVuSans-31" transform="translate(179.376419 0.765625)"/>
     <use xlink:href="#DejaVuSans-65" transform="translate(242.999466 0.765625)"/>
     <use xlink:href="#DejaVuSans-2d" transform="translate(304.522904 0.765625)"/>
     <use xlink:href="#DejaVuSans-30" transform="translate(340.606888 0.765625)"/>
     <use xlink:href="#DejaVuSans-36" transform="translate(404.229935 0.765625)"/>
    </g>
   </g>
   <g id="line2d_60">
    <path d="M 377 27.776563 
L 387 27.776563 
L 397 27.776563 
" style="fill: none; stroke: #ff7f0e; stroke-width: 1.5; stroke-linecap: square"/>
   </g>
   <g id="text_40">
    <!-- $\lambda^2$: 1e-07 -->
    <g transform="translate(405 31.276563) scale(0.1 -0.1)">
     <use xlink:href="#DejaVuSans-Oblique-3bb" transform="translate(0 0.765625)"/>
     <use xlink:href="#DejaVuSans-32" transform="translate(66.627396 39.046875) scale(0.7)"/>
     <use xlink:href="#DejaVuSans-3a" transform="translate(113.897904 0.765625)"/>
     <use xlink:href="#DejaVuSans-20" transform="translate(147.58931 0.765625)"/>
     <use xlink:href="#DejaVuSans-31" transform="translate(179.376419 0.765625)"/>
     <use xlink:href="#DejaVuSans-65" transform="translate(242.999466 0.765625)"/>
     <use xlink:href="#DejaVuSans-2d" transform="translate(304.522904 0.765625)"/>
     <use xlink:href="#DejaVuSans-30" transform="translate(340.606888 0.765625)"/>
     <use xlink:href="#DejaVuSans-37" transform="translate(404.229935 0.765625)"/>
    </g>
   </g>
   <g id="line2d_61">
    <path d="M 377 42.454687 
L 387 42.454687 
L 397 42.454687 
" style="fill: none; stroke: #2ca02c; stroke-width: 1.5; stroke-linecap: square"/>
   </g>
   <g id="text_41">
    <!-- $\lambda^2$: 1e-08 -->
    <g transform="translate(405 45.954687) scale(0.1 -0.1)">
     <use xlink:href="#DejaVuSans-Oblique-3bb" transform="translate(0 0.765625)"/>
     <use xlink:href="#DejaVuSans-32" transform="translate(66.627396 39.046875) scale(0.7)"/>
     <use xlink:href="#DejaVuSans-3a" transform="translate(113.897904 0.765625)"/>
     <use xlink:href="#DejaVuSans-20" transform="translate(147.58931 0.765625)"/>
     <use xlink:href="#DejaVuSans-31" transform="translate(179.376419 0.765625)"/>
     <use xlink:href="#DejaVuSans-65" transform="translate(242.999466 0.765625)"/>
     <use xlink:href="#DejaVuSans-2d" transform="translate(304.522904 0.765625)"/>
     <use xlink:href="#DejaVuSans-30" transform="translate(340.606888 0.765625)"/>
     <use xlink:href="#DejaVuSans-38" transform="translate(404.229935 0.765625)"/>
    </g>
   </g>
  </g>
 </g>
 <defs>
  <clipPath id="p39bf2319c4">
   <rect x="70.6025" y="41.24" width="325.3055" height="259.52"/>
  </clipPath>
 </defs>
</svg>
